<?xml version="1.0" encoding="UTF-8" standalone="no"?>
<svg
   xmlns:dc="http://purl.org/dc/elements/1.1/"
   xmlns:cc="http://creativecommons.org/ns#"
   xmlns:rdf="http://www.w3.org/1999/02/22-rdf-syntax-ns#"
   xmlns:svg="http://www.w3.org/2000/svg"
   xmlns="http://www.w3.org/2000/svg"
   xmlns:sodipodi="http://sodipodi.sourceforge.net/DTD/sodipodi-0.dtd"
   xmlns:inkscape="http://www.inkscape.org/namespaces/inkscape"
   version="1.1"
   id="svg2"
   width="703.03021"
   height="703.03021"
   viewBox="0 0 703.03021 703.03022"
   sodipodi:docname="original_icon.svg"
   inkscape:version="1.0.1 (3bc2e813f5, 2020-09-07)"
   inkscape:export-filename="M:\R&amp;D\Research\OPM-MEG\OPM-MEG coil system\Coil driver control software\PC Python interface\icon.png"
   inkscape:export-xdpi="8.7393112"
   inkscape:export-ydpi="8.7393112">
  <metadata
     id="metadata8">
    <rdf:RDF>
      <cc:Work
         rdf:about="">
        <dc:format>image/svg+xml</dc:format>
        <dc:type
           rdf:resource="http://purl.org/dc/dcmitype/StillImage" />
        <dc:title></dc:title>
      </cc:Work>
    </rdf:RDF>
  </metadata>
  <defs
     id="defs6" />
  <sodipodi:namedview
     pagecolor="#ffffff"
     bordercolor="#666666"
     borderopacity="1"
     objecttolerance="10"
     gridtolerance="10"
     guidetolerance="10"
     inkscape:pageopacity="0"
     inkscape:pageshadow="2"
     inkscape:window-width="2560"
     inkscape:window-height="1377"
     id="namedview4"
     showgrid="false"
     fit-margin-top="0"
     fit-margin-left="0"
     fit-margin-right="0"
     fit-margin-bottom="0"
     inkscape:zoom="1.0019531"
     inkscape:cx="128.77909"
     inkscape:cy="500.82273"
     inkscape:window-x="-8"
     inkscape:window-y="-8"
     inkscape:window-maximized="1"
     inkscape:current-layer="g10" />
  <g
     inkscape:groupmode="layer"
     inkscape:label="Image"
     id="g10"
     transform="translate(-135.33519,-125.47259)">
    <path
       style="fill:#000000;stroke-width:0.911982"
       d="m 236.06894,781.81873 c -9.28122,-1.7635 -16.27995,-4.46606 -24.10167,-9.30685 -18.64468,-11.53899 -31.94058,-31.0288 -36.17006,-53.0199 -1.06036,-5.51332 -1.28944,-24.79006 -1.30055,-109.43787 -0.0145,-110.45141 0.12768,-106.80154 -4.65925,-119.61744 -3.73002,-9.98631 -4.23065,-15.5367 -2.87901,-31.91938 0.8807,-10.67453 2.09093,-18.36072 4.1643,-26.44748 l 2.9228,-11.39978 0.49069,-100.77404 c 0.45862,-94.18773 0.60024,-101.16147 2.16701,-106.70192 7.0511,-24.93441 24.40665,-44.32923 47.34975,-52.91335 12.70771,-4.75456 0.56464,-4.54153 258.87216,-4.54153 238.63421,0 239.90283,0.01 249.07959,1.87967 17.70031,3.6071 27.93604,8.95825 39.94052,20.88058 7.79344,7.74011 13.09253,16.41366 17.01781,27.85476 l 2.50311,7.29586 0.21579,99.52814 0.2158,99.52814 5.40618,14.46964 c 6.39524,17.11683 10.12192,32.80968 10.12192,42.62285 0,7.75583 -1.5968,13.3378 -10.38337,36.29731 l -5.12033,13.37952 -0.007,96.51434 c -0.005,61.44803 -0.34669,98.66811 -0.94215,102.44223 -4.65713,29.51788 -25.04104,52.28017 -55.32337,61.77848 l -8.02193,2.51627 -242.58727,0.15237 c -198.53906,0.12471 -243.74646,-0.0679 -248.97117,-1.06062 z m 492.51165,-17.31899 c 10.99723,-2.78968 20.18803,-7.85742 27.69257,-15.26949 10.46319,-10.33428 15.61927,-20.60075 17.37384,-34.59375 0.59905,-4.77756 0.95461,-42.10736 0.96689,-101.5143 l 0.0194,-93.95809 2.60966,-7.29586 c 1.43532,-4.01272 4.95526,-13.43823 7.8221,-20.94558 7.81382,-20.46186 7.80146,-20.34345 3.76131,-36.05083 -1.8631,-7.24336 -5.72485,-18.92794 -8.58168,-25.96574 l -5.19425,-12.79598 -0.512,-99.86206 c -0.3605,-70.31527 -0.81821,-100.93562 -1.54695,-103.49049 -2.16957,-7.60628 -7.89029,-17.18071 -13.88352,-23.23604 -6.90065,-6.97214 -15.71958,-11.76222 -26.97361,-14.65098 -7.18287,-1.84376 -9.22842,-1.86178 -246.63828,-2.17274 -259.7406,-0.34023 -246.69674,-0.56967 -257.97871,4.53796 -6.93177,3.13819 -15.64973,9.58091 -20.56655,15.19903 -5.36943,6.13527 -10.97362,16.9074 -13.51068,25.96968 -1.97828,7.06631 -1.98901,7.56706 -2.17525,101.49151 -0.10294,51.91459 -0.42285,96.48284 -0.71092,99.04056 -0.28807,2.55772 -2.13872,10.24756 -4.11255,17.08853 -1.97383,6.84098 -4.08121,16.35031 -4.68307,21.13185 -1.30696,10.38342 -0.74697,13.97764 4.84191,31.07669 l 3.84996,11.77886 0.52495,106.70192 c 0.28871,58.68606 0.83139,107.72791 1.20593,108.98188 0.37455,1.25398 1.12842,4.12672 1.67528,6.38388 2.41856,9.98263 11.27689,23.79313 19.66564,30.65951 6.3719,5.21554 16.50748,10.16545 25.18417,12.29918 6.08325,1.49596 21.0952,1.5983 243.70901,1.6613 l 237.22644,0.0671 z M 460.87258,748.82925 c -41.55484,-4.14602 -67.08272,-10.83493 -97.12611,-25.44933 -32.43675,-15.77862 -56.41029,-32.33713 -79.37711,-54.8257 -17.63533,-17.26809 -27.20566,-28.91353 -41.45209,-50.44004 -10.25168,-15.49039 -20.72988,-36.42678 -26.99643,-53.94126 -4.8408,-13.52965 -11.31528,-36.94856 -11.31528,-40.92865 0,-2.52861 4.77204,-7.2721 7.31587,-7.2721 2.82274,0 7.93631,2.60056 8.65652,4.40236 0.33538,0.83904 1.77432,6.24503 3.19763,12.01332 13.58814,55.06867 49.101,109.16429 94.24182,143.55559 17.72925,13.50733 39.79089,26.59619 60.82433,36.08626 22.9458,10.35291 52.01881,17.50601 81.91535,20.15443 15.51342,1.37426 51.01303,0.60913 63.49826,-1.3686 46.56219,-7.37572 88.50375,-24.8689 123.38106,-51.46036 18.36228,-13.99993 45.14255,-41.05262 58.45458,-59.04919 20.08304,-27.15033 32.33869,-52.76628 39.83847,-83.26772 3.0006,-12.20339 4.40341,-16.37064 6.07271,-18.03994 5.26374,-5.26374 13.47249,-2.69657 13.47249,4.21334 0,4.20179 -3.58663,20.17635 -7.17923,31.97575 -11.52709,37.85908 -35.48669,76.31733 -67.35977,108.12111 -38.73346,38.64924 -79.57018,62.60784 -130.20102,76.38795 -25.80226,7.02257 -47.99247,9.80443 -76.55424,9.5972 -11.06373,-0.0802 -21.55225,-0.28926 -23.30781,-0.46442 z M 276.65215,745.7542 c -21.28382,-1.90866 -37.76586,-13.93994 -47.10554,-34.38532 -4.76694,-10.43524 -5.75543,-16.50126 -5.77359,-35.43047 -0.0172,-18.00907 0.15398,-18.62487 5.55452,-19.97227 3.38969,-0.8457 8.8489,1.63443 9.39271,4.26712 0.23994,1.16164 0.63771,8.26794 0.88393,15.79179 0.51252,15.66136 2.04936,22.414 7.17722,31.53542 3.91125,6.95733 9.21683,12.32274 16.50411,16.69025 9.12887,5.47124 13.76361,6.03728 49.43318,6.03728 h 31.60256 l 3.10074,3.10074 c 3.84313,3.84313 4.23135,8.28691 0.99,11.33201 -2.08738,1.96099 -2.45325,1.98152 -33.05937,1.85577 -17.02174,-0.0699 -34.43695,-0.43998 -38.70047,-0.82232 z m 346.72414,-0.90116 c -3.01525,-3.2365 -2.71787,-8.51042 0.67096,-11.89924 l 2.66579,-2.6658 29.02559,-0.007 c 29.55496,-0.007 36.99063,-0.59384 45.52298,-3.59272 11.31905,-3.97834 20.89441,-13.43944 26.20113,-25.8885 2.69361,-6.31895 2.80278,-7.11302 3.29918,-23.9984 0.5579,-18.97715 0.96345,-20.41014 6.14423,-21.71043 3.00488,-0.75417 8.27381,1.01451 9.42387,3.16342 1.43633,2.68381 1.09197,33.13833 -0.45874,40.57013 -0.73263,3.51113 -3.24785,10.26486 -5.58937,15.00829 -5.44532,11.03107 -14.96948,21.0215 -24.27357,25.46194 -12.42481,5.92981 -16.43768,6.44428 -55.40757,7.10348 l -35.22962,0.59593 -1.99486,-2.14121 z m -156.8711,-33.75425 c -2.73241,-2.9329 -3.19621,-4.9553 -1.98089,-8.63774 1.68519,-5.10617 3.67399,-5.91528 14.56285,-5.92467 30.24265,-0.0261 72.00635,-10.1909 102.62307,-24.97734 14.66017,-7.08017 31.61398,-17.63578 41.95119,-26.11922 8.16692,-6.70236 31.66831,-30.67899 37.06393,-37.81343 16.98053,-22.45275 29.1199,-46.66232 35.44029,-70.67863 1.35594,-5.15234 3.02704,-7.03711 7.40136,-8.34768 2.90416,-0.87011 3.83663,-0.78807 5.82094,0.5121 5.46793,3.58272 5.17529,8.8355 -1.51959,27.27631 -17.24428,47.49871 -50.11851,87.92549 -95.60671,117.57143 -34.03531,22.18176 -84.31084,37.27343 -129.12319,38.76012 -14.45194,0.47945 -14.69854,0.45541 -16.63325,-1.62125 z m -43.67931,-6.26878 c -29.93333,-10.56355 -55.43572,-23.24752 -75.0391,-37.32176 -37.46239,-26.89608 -66.07624,-63.99675 -82.86974,-107.44874 -6.81566,-17.63505 -7.95768,-22.26911 -6.60261,-26.79191 1.206,-4.02529 3.60784,-5.56181 7.52389,-4.81321 5.19871,0.9938 6.99422,3.74879 12.66772,19.43716 8.12968,22.48021 16.43798,38.37372 30.03442,57.45488 3.39541,4.76511 8.79276,11.49002 11.99411,14.94425 3.20134,3.45423 6.34141,7.02307 6.97793,7.93075 1.96151,2.79714 19.36835,17.5722 28.21106,23.94576 14.65501,10.56288 26.05416,16.9661 48.15013,27.04721 5.7891,2.64125 16.77044,6.86604 23.71153,9.12243 8.36642,2.71974 12.94392,5.06894 14.10523,7.23886 1.45281,2.71459 1.11786,7.84818 -0.65349,10.01549 -2.76617,3.38453 -6.96042,3.20922 -18.21108,-0.76117 z m 140.18871,-44.7237 c -1.25398,-0.39283 -6.27319,-2.3863 -11.15381,-4.4299 -9.77297,-4.09213 -23.62048,-8.27005 -37.63724,-11.35551 -8.0428,-1.77043 -11.81238,-2.00838 -31.91938,-2.0149 -21.87861,-0.007 -23.24161,0.0971 -33.74334,2.58092 -13.01861,3.07902 -24.73489,6.86625 -34.47151,11.14274 -8.14104,3.57568 -10.52105,3.82051 -13.52147,1.3909 -2.40864,-1.95039 -2.81707,-7.2624 -0.84212,-10.95262 1.75225,-3.27412 22.45108,-11.67304 40.96336,-16.62163 15.31849,-4.09484 47.85715,-5.80176 67.51519,-3.54172 19.21558,2.20917 55.31382,14.33881 63.71781,21.4103 3.77166,3.17365 4.06131,7.67242 0.70977,11.02395 -2.29882,2.29884 -5.28772,2.72382 -9.61726,1.36747 z M 434.42509,624.07342 C 412.7112,619.0963 380.7138,598.56354 362.14129,577.68884 346.0406,559.59236 331.86763,535.6155 325.12081,515.06019 c -2.50975,-7.64637 -5.56044,-21.49294 -5.58575,-25.3528 -0.0238,-3.62856 2.08714,-7.98971 4.48966,-9.27549 4.71807,-2.52504 18.38953,-0.0414 44.28166,8.0443 8.02544,2.50623 16.09593,4.83255 17.93441,5.1696 4.70699,0.86292 6.62725,3.33938 11.23401,14.48789 4.75381,11.50438 15.38508,28.14997 22.43546,35.12763 13.57112,13.43118 28.32337,21.47132 46.95243,25.58959 10.4812,2.31704 21.05104,2.3113 32.4794,-0.0177 27.85967,-5.67744 47.03248,-18.58246 63.56929,-42.78782 l 7.50499,-10.98521 3.82296,0.0124 c 5.7795,0.0189 7.86298,0.86654 9.39068,3.82078 1.31021,2.53367 1.24853,2.96268 -1.06495,7.40794 -9.56232,18.37362 -30.25491,39.08571 -48.12708,48.17241 -14.36142,7.30175 -29.77377,11.34537 -46.99976,12.33096 -37.08104,2.12163 -70.64616,-15.43155 -92.54126,-48.39526 -2.00943,-3.02525 -6.23562,-10.90866 -9.39153,-17.51867 l -5.73802,-12.01821 -6.64249,-1.9757 c -3.65338,-1.08662 -13.01938,-4.00352 -20.81333,-6.482 -7.79395,-2.47843 -14.61527,-4.50628 -15.1585,-4.50628 -0.89221,0 3.70018,13.87785 8.67588,26.21787 5.21193,12.92587 14.8802,28.57775 25.57829,41.40849 17.27848,20.72293 47.06142,40.164 69.01054,45.04721 8.6871,1.9327 11.33495,4.13425 11.33495,9.42441 0,6.84224 -5.51727,8.77399 -17.32766,6.06688 z m 76.10907,-1.81387 c -2.58401,-2.584 -2.92439,-6.55752 -0.8975,-10.47711 1.39488,-2.69738 1.75907,-2.82688 15.53066,-5.52233 6.50931,-1.27403 21.68191,-6.23527 28.774,-9.40872 14.24051,-6.3721 30.25204,-18.20114 44.22049,-32.66932 15.48186,-16.03573 22.76495,-26.95956 29.40614,-44.10598 3.8569,-9.95786 7.8828,-23.16997 7.2523,-23.80047 -1.29028,-1.29029 -42.48495,6.80793 -57.02621,11.21045 -8.81722,2.66951 -13.06454,2.35149 -15.35881,-1.14999 -1.96432,-2.99794 -1.09193,-8.25878 1.85882,-11.20953 1.83633,-1.83633 5.1402,-2.86924 18.03994,-5.63994 8.68556,-1.86554 18.79245,-4.05619 22.45978,-4.86809 9.70636,-2.14887 29.51687,-5.12619 34.08244,-5.12223 7.03506,0.006 12.60066,5.40398 12.60066,12.22096 0,3.76129 -5.35925,25.13835 -8.33081,33.23008 -7.21411,19.64442 -23.57623,42.94396 -41.47512,59.06025 -22.51978,20.27698 -39.92743,29.61489 -69.30709,37.1781 -15.45916,3.97966 -18.76146,4.14211 -21.82969,1.07387 z M 468.16843,537.8789 c -19.97491,-5.33799 -33.21102,-16.54306 -45.59053,-38.59482 -2.36886,-4.21969 -2.86184,-5.94718 -2.43963,-8.54894 0.67404,-4.15362 2.8073,-6.49919 6.54939,-7.20121 5.23069,-0.98128 8.06468,1.37694 12.89579,10.73084 11.41246,22.09664 32.04764,32.89392 52.7889,27.62158 15.79,-4.01375 28.17085,-14.50409 36.25465,-30.71868 3.53955,-7.09967 4.95451,-9.04532 7.43369,-10.22176 3.64412,-1.72925 4.29133,-1.76703 7.24173,-0.42274 3.3552,1.52872 4.56101,5.17477 3.31746,10.03104 -3.87414,15.12917 -14.23151,28.98445 -28.6619,38.34167 -3.05103,1.9784 -9.7713,4.91439 -15.5037,6.77334 -13.11212,4.25209 -24.01389,4.9547 -34.28585,2.20968 z m -225.9592,-33.80911 c -14.30352,-2.54554 -28.06909,-15.60385 -31.23582,-29.63096 -4.30137,-19.05305 4.35767,-37.2415 21.56265,-45.29268 29.2725,-13.69826 62.23817,7.92648 59.19308,38.82934 -1.17954,11.97046 -7.49116,23.21901 -16.43329,29.28736 -8.72308,5.91969 -22.33573,8.72023 -33.08662,6.80694 z m 14.2423,-19.6048 c 5.59918,-1.66278 10.3552,-5.91114 12.9034,-11.52607 6.94646,-15.30645 -8.08147,-32.48882 -24.20743,-27.67787 -9.09445,2.71321 -15.00644,10.39603 -15.00644,19.50135 0,2.61649 0.56425,6.1077 1.25388,7.75824 2.94666,7.05231 10.96524,13.14117 17.50423,13.29169 1.53912,0.0355 4.93769,-0.57087 7.55236,-1.34734 z m 457.56914,19.53945 c -11.04618,-1.58186 -22.41728,-9.29939 -28.17315,-19.12104 -2.83245,-4.83322 -6.10413,-16.75201 -6.08838,-22.18007 0.0264,-9.08773 4.18214,-18.42868 11.37227,-25.56158 15.07559,-14.95559 39.66115,-15.9478 55.84203,-2.25366 17.07891,14.45418 17.28321,44.40673 0.40439,59.28755 -8.93457,7.87696 -21.37986,11.544 -33.35716,9.8288 z m 11.45586,-20.09807 c 4.53329,-1.35821 10.37922,-6.36851 12.6701,-10.85902 2.36052,-4.62701 2.35024,-11.68551 -0.0238,-16.33902 -6.41062,-12.56587 -20.57359,-15.58079 -31.05341,-6.61046 -7.33989,6.28268 -9.06929,14.06568 -5.04563,22.70749 4.6304,9.94497 13.42194,14.10631 23.45274,11.10101 z m -336.19456,-6.51694 c -4.51431,-2.13852 -16.21048,-7.81242 -25.99149,-12.60867 -9.78101,-4.79625 -22.09277,-10.27497 -27.35947,-12.17492 -14.0718,-5.07637 -16.18088,-8.37846 -12.35122,-19.33768 11.86051,-33.94084 21.05387,-51.2352 36.51172,-68.68504 16.20452,-18.29274 39.71412,-34.27983 63.84579,-43.41663 3.79951,-1.43859 4.17971,-1.77309 2.27995,-2.00595 -10.84238,-1.32898 -28.8261,-9.38753 -36.13145,-16.19059 -4.53859,-4.22653 -5.07846,-6.98706 -2.10561,-10.76643 2.85488,-3.6294 7.39145,-3.26888 15.14935,1.20387 20.0888,11.58206 63.69368,18.23816 95.5903,14.59145 17.84104,-2.03975 40.79354,-8.31147 58.54369,-15.99696 10.2823,-4.45204 12.77291,-4.822 15.82486,-2.35068 3.69121,2.98896 2.35752,9.26035 -2.74146,12.89115 -5.66154,4.03137 -28.58017,12.58057 -36.51577,13.62126 -5.88831,0.7722 -5.99642,0.69703 8.66383,6.02461 18.03565,6.55422 40.41284,19.70661 54.87503,32.25331 8.47615,7.3535 22.9762,23.83894 29.1926,33.18975 6.02351,9.06065 12.0982,21.84792 18.06219,38.02108 4.7248,12.81268 5.11044,14.40207 4.21755,17.38227 -1.47932,4.93755 -4.24638,6.86324 -12.4132,8.6388 -12.01232,2.61161 -32.07688,10.49969 -54.26295,21.33266 -12.98903,6.34227 -16.53118,6.91132 -20.44459,3.28449 -1.85561,-1.71971 -2.31768,-2.79895 -1.85468,-4.33191 1.02555,-3.39557 4.89987,-6.80037 9.06514,-7.96658 3.01604,-0.84444 4.03614,-1.61826 4.35888,-3.30658 0.76551,-4.00451 -0.30927,-14.37248 -2.21009,-21.31985 -8.87375,-32.43292 -33.4978,-56.01546 -68.25711,-65.37006 -4.46575,-1.20184 -9.41452,-1.58993 -20.06361,-1.57337 -12.62553,0.0196 -14.9639,0.27688 -21.88757,2.40804 -27.58018,8.48939 -47.28502,25.22009 -59.35892,50.39967 -5.0842,10.60286 -7.93717,20.16917 -8.72201,29.2458 l -0.55738,6.44624 4.68527,3.4393 c 5.93707,4.35822 7.41014,6.48983 7.41014,10.7229 0,2.47269 -0.5499,3.77846 -2.02689,4.81298 -2.88556,2.02112 -3.8546,1.83449 -13.02082,-2.50773 z m -11.01571,-29.82114 c 0.82817,-7.32005 5.36802,-23.26498 8.74379,-30.71008 4.41642,-9.7402 12.00006,-20.21301 21.34406,-29.47553 17.07946,-16.93056 36.65341,-26.89117 61.05833,-31.07077 10.01638,-1.71542 30.26589,-0.61661 40.25119,2.18417 25.65262,7.19531 47.22698,22.2343 61.71815,43.02232 10.69726,15.34554 18.08029,34.54875 18.08029,47.02671 0,1.97357 0.43388,3.5883 0.96418,3.5883 0.5303,0 4.78172,-1.82 9.44761,-4.04446 11.52685,-5.49541 18.08379,-8.09445 25.42486,-10.07792 3.65586,-0.98777 6.01725,-2.08179 5.75839,-2.66784 -0.24135,-0.54638 -2.4544,-5.91813 -4.91788,-11.93722 -8.73937,-21.35305 -15.32223,-31.501 -32.28435,-49.76876 -8.57548,-9.23555 -28.35272,-23.14412 -41.53604,-29.21067 -4.12708,-1.89916 -12.12973,-5.17427 -17.78365,-7.27802 -10.2134,-3.80026 -15.17047,-6.66518 -18.2949,-10.57346 -1.62243,-2.02944 -1.77166,-2.04013 -27.81546,-1.99162 -14.40135,0.0268 -29.87781,-0.22523 -34.39212,-0.56012 l -8.20784,-0.60889 -1.36797,2.97302 c -1.84782,4.01584 -4.2252,5.569 -15.88567,10.3782 -20.80324,8.58 -34.59574,17.35485 -48.73824,31.00752 -16.21244,15.6509 -23.56751,27.04564 -35.32119,54.72082 -2.76934,6.52067 -5.24428,12.32453 -5.49986,12.89746 -0.27057,0.60653 1.36995,1.71138 3.92708,2.6448 13.32197,4.86286 23.24684,9.00478 28.10331,11.72829 3.00954,1.68775 5.72668,3.11638 6.03808,3.17475 0.3114,0.0584 0.84504,-2.35859 1.18585,-5.371 z m 45.95983,20.1851 -2.93192,-2.61967 1.08996,-7.01086 c 3.49265,-22.46566 18.53088,-39.69556 41.22075,-47.22827 7.91939,-2.62913 9.69073,-2.87928 20.52324,-2.89835 11.0384,-0.0194 12.41531,0.17896 19.97169,2.87768 10.07201,3.59714 16.24164,7.28979 23.11839,13.83681 9.14371,8.70529 15.17622,18.55264 18.10579,29.55552 1.86691,7.01177 1.62833,10.36441 -0.91883,12.91157 -2.39041,2.39041 -5.66457,2.38317 -9.35764,-0.0207 -1.65921,-1.08 -5.77628,-9.76175 -5.77628,-12.18058 0,-0.405 -1.68126,-3.36495 -3.73615,-6.57766 -8.03603,-12.5639 -16.48743,-18.73458 -30.54196,-22.29981 -13.58391,-3.44584 -20.13262,-2.867 -31.99261,2.82783 -12.50005,6.00218 -20.93416,16.51954 -24.4682,30.51192 -1.64345,6.50698 -2.6591,8.28393 -5.64324,9.87329 -3.15709,1.68147 -5.5105,1.25803 -8.66299,-1.55872 z M 207.75605,407.03174 c -2.77352,-2.7735 -2.7711,-3.08035 0.11358,-14.46789 3.32192,-13.11352 7.67039,-24.37852 15.90561,-41.20447 17.39003,-35.53083 36.30426,-60.07365 68.37259,-88.71924 35.89728,-32.06586 84.81818,-55.74471 135.89339,-65.77553 32.56796,-6.39613 63.10408,-6.99086 95.30214,-1.85613 14.00247,2.23301 17.10384,3.13959 20.49128,5.98994 2.30839,1.94239 2.76427,2.98941 2.76427,6.34883 0,4.38342 -2.29149,7.67078 -5.34699,7.67078 -0.93448,0 -8.21894,-1.21582 -16.18769,-2.70181 -20.34026,-3.79302 -27.97746,-4.59531 -43.64813,-4.58526 -41.26955,0.0264 -82.8184,10.4662 -123.64601,31.06789 -42.30089,21.34512 -77.52957,52.51439 -102.86278,91.00988 -12.12419,18.42351 -25.15376,46.53671 -30.27643,65.32579 -1.09403,4.01273 -2.40179,8.11665 -2.90613,9.11983 -2.66241,5.29576 -9.99284,6.75327 -13.9687,2.77739 z m 55.58116,-0.86223 c -3.54266,-3.54267 -3.70036,-4.87332 -1.70281,-14.3693 3.31914,-15.77865 13.19956,-39.62102 22.99479,-55.48854 14.24473,-23.07536 36.8696,-47.63187 59.76684,-64.86949 8.51517,-6.41044 11.37578,-8.08909 13.78474,-8.08909 4.01992,0 7.55075,2.908 8.86766,7.30345 1.39673,4.66186 -0.10279,7.01868 -6.96284,10.9436 -21.72801,12.43151 -48.57966,41.01251 -63.23149,67.30385 -9.11153,16.34982 -17.06178,35.53468 -19.90752,48.03917 -1.10414,4.85168 -2.15895,7.07815 -4.42861,9.34782 -3.761,3.76099 -5.31891,3.74037 -9.18076,-0.12147 z m 435.45464,1.72995 c -2.94211,-1.59886 -4.66807,-5.1472 -7.0962,-14.5889 -8.59495,-33.42102 -36.90078,-72.72482 -70.32538,-97.64967 -40.7334,-30.37505 -93.12789,-48.60087 -139.97809,-48.69247 -25.93276,-0.0507 -63.35177,8.25332 -86.6164,19.22188 -8.28446,3.90588 -11.74133,3.92107 -15.18517,0.0668 -1.62171,-1.81499 -2.6204,-3.9506 -2.6204,-5.60343 0,-4.86543 3.10532,-7.03186 17.78365,-12.40677 24.23622,-8.87482 38.05178,-12.44798 62.0148,-16.03909 12.08622,-1.81125 43.88196,-1.54226 56.5429,0.47836 36.44696,5.81672 63.81896,15.80584 97.18626,35.46712 38.05785,22.42513 69.13358,55.68413 87.1006,93.22 5.56007,11.61583 13.15729,33.40205 13.15729,37.73059 0,4.00698 -2.32728,8.23223 -5.11896,9.29362 -2.98929,1.13653 -3.96823,1.06532 -6.8449,-0.49798 z m 49.302,0.0288 c -2.911,-1.5833 -3.92552,-3.79442 -6.26973,-13.66483 -1.02479,-4.31488 -4.15034,-13.47631 -6.94569,-20.35874 -20.29009,-49.95625 -52.28461,-88.20359 -100.27324,-119.86998 -13.37491,-8.82575 -38.44343,-21.3315 -51.98298,-25.93239 -10.91662,-3.70958 -15.04771,-6.6689 -15.04771,-10.77949 0,-3.94311 2.41937,-7.53078 5.83967,-8.65958 2.69076,-0.88804 4.14808,-0.69584 10.27566,1.35524 8.47958,2.83834 23.21045,9.1544 34.22133,14.67285 30.33317,15.20246 66.18438,43.53179 87.99619,69.53386 25.99239,30.9858 43.38226,63.5367 51.90436,97.15613 2.7647,10.90668 2.44862,14.50131 -1.4525,16.51865 -3.24092,1.67595 -5.22349,1.68273 -8.26536,0.0283 z M 226.42298,289.87072 c -3.00172,-3.00171 -2.86906,-1.58112 -2.66974,-28.58707 0.0757,-10.25718 0.5596,-17.00832 1.4695,-20.50165 5.27742,-20.26141 20.19346,-36.48712 39.31845,-42.77075 6.52587,-2.14412 79.97852,-3.52354 83.05829,-1.55981 4.50568,2.8729 4.68773,8.82295 0.40762,13.32269 l -2.38553,2.50795 -32.43275,0.005 c -17.83801,0.003 -34.8951,0.40802 -37.90464,0.90026 -8.31907,1.36066 -15.83747,5.50832 -22.07849,12.17997 -10.14274,10.84264 -14.28374,24.35184 -13.88015,45.28135 0.30304,15.71493 0.22467,16.26666 -2.73045,19.22178 -1.60707,1.60687 -3.627,2.6656 -5.08606,2.6656 -1.45905,0 -3.47898,-1.05873 -5.08605,-2.6658 z m 508.83639,1.28885 c -1.31989,-0.71716 -2.73144,-2.03451 -3.13677,-2.92743 -0.40533,-0.89292 -1.02409,-10.44693 -1.37503,-21.23112 -0.4424,-13.59461 -1.06414,-20.89931 -2.02741,-23.81963 -4.57861,-13.88071 -14.56322,-23.92558 -28.22595,-28.39626 -5.16461,-1.68995 -8.81523,-1.91579 -38.98554,-2.41179 -30.11287,-0.49505 -33.52002,-0.70518 -35.72707,-2.20339 -4.41514,-2.99712 -5.2296,-9.64984 -1.55573,-12.70758 1.75065,-1.45705 4.87283,-1.59597 35.86998,-1.59597 30.72934,0 34.61548,0.16959 40.93724,1.78642 12.87275,3.29229 24.47965,10.31122 32.27995,19.52034 4.68456,5.53065 10.63892,17.45707 12.12816,24.29236 1.53484,7.0446 2.17692,32.83961 1.02153,41.0392 -1.32177,9.38033 -4.85072,12.10653 -11.20336,8.65485 z"
       id="path837"
       sodipodi:nodetypes="ssssssscssssssscccssscssscsssssscsssscssssssssssssscsssssscssssssssssssssssssssssssssssssssscsssscscsssssssssscccssssssssssssssssssssssssssssssscssssssssssssssssssssscssssssscsssssssssssssssssssscsssssssssssssssssssssssssssssssssssssssssssssssssssssssssssssssssssssssssssscsssssssssssssssssssssscsssssssssscssssssssssssssssssssssssssssssssssssssssssssssssssssssssssssssssssssssssscsssccssscssssssssssssssss" />
  </g>
</svg>
